<svg width="17" height="21" viewBox="0 0 17 21" fill="none" xmlns="http://www.w3.org/2000/svg">
<path d="M16.5754 16.573C16.2729 17.2718 15.9149 17.9149 15.5001 18.5063C14.9347 19.3124 14.4717 19.8704 14.1149 20.1803C13.5619 20.6889 12.9693 20.9494 12.3347 20.9642C11.8792 20.9642 11.3298 20.8346 10.6904 20.5717C10.0488 20.3099 9.45915 20.1803 8.92004 20.1803C8.35462 20.1803 7.74822 20.3099 7.0996 20.5717C6.44999 20.8346 5.92667 20.9716 5.52656 20.9852C4.91806 21.0111 4.31153 20.7433 3.70612 20.1803C3.31971 19.8433 2.83639 19.2655 2.2574 18.447C1.63618 17.573 1.12546 16.5594 0.725345 15.4039C0.29684 14.1558 0.0820312 12.9472 0.0820312 11.7771C0.0820312 10.4368 0.371652 9.28076 0.951758 8.31203C1.40767 7.5339 2.01419 6.92009 2.77331 6.46949C3.53242 6.01888 4.35264 5.78926 5.23595 5.77457C5.71927 5.77457 6.35308 5.92407 7.14071 6.21789C7.92611 6.5127 8.43042 6.6622 8.65152 6.6622C8.81683 6.6622 9.37706 6.48739 10.3268 6.13888C11.2249 5.81568 11.9829 5.68186 12.6039 5.73457C14.2865 5.87037 15.5507 6.53368 16.3914 7.72871C14.8865 8.64053 14.1421 9.91766 14.1569 11.556C14.1705 12.8321 14.6334 13.8941 15.5433 14.7373C15.9556 15.1286 16.4161 15.4311 16.9284 15.6459C16.8173 15.9681 16.7 16.2767 16.5754 16.573ZM12.7162 1.38705C12.7162 2.38728 12.3508 3.32119 11.6224 4.18561C10.7434 5.21323 9.68026 5.80704 8.52733 5.71334C8.51264 5.59334 8.50412 5.46705 8.50412 5.33434C8.50412 4.37412 8.92213 3.3465 9.66446 2.50628C10.0351 2.08086 10.5064 1.72713 11.078 1.44495C11.6483 1.16698 12.1878 1.01326 12.6952 0.986938C12.71 1.12065 12.7162 1.25439 12.7162 1.38705Z" fill="white"/>
</svg>
