<svg width="21" height="21" viewBox="0 0 21 21" fill="none" xmlns="http://www.w3.org/2000/svg">
<path fill-rule="evenodd" clip-rule="evenodd" d="M5.92969 0.986816H15.9297C18.6911 0.986816 20.9297 3.22539 20.9297 5.98682V15.9868C20.9297 18.7482 18.6911 20.9868 15.9297 20.9868H5.92969C3.16826 20.9868 0.929688 18.7482 0.929688 15.9868V5.98682C0.929688 3.22539 3.16826 0.986816 5.92969 0.986816ZM14.5232 12.7856C14.9107 12.0388 15.0528 11.1889 14.9294 10.3566C14.8035 9.50771 14.4079 8.72178 13.8011 8.11494C13.1942 7.50809 12.4083 7.11251 11.5594 6.98663C10.7271 6.86322 9.87718 7.00537 9.13038 7.39287C8.38358 7.78037 7.77798 8.39348 7.39972 9.145C7.02146 9.89652 6.8898 10.7482 7.02346 11.5788C7.15713 12.4095 7.54931 13.1769 8.14423 13.7718C8.73916 14.3667 9.50652 14.7589 10.3372 14.8926C11.1678 15.0262 12.0195 14.8946 12.771 14.5163C13.5225 14.138 14.1357 13.5324 14.5232 12.7856ZM15.43 5.48676C15.43 4.93447 15.8777 4.48676 16.43 4.48676H16.44C16.9923 4.48676 17.44 4.93447 17.44 5.48676C17.44 6.03904 16.9923 6.48676 16.44 6.48676H16.43C15.8777 6.48676 15.43 6.03904 15.43 5.48676Z" fill="white"/>
</svg>
