<svg width="41" height="20" viewBox="0 0 41 20" fill="none" xmlns="http://www.w3.org/2000/svg">
<g filter="url(#filter0_b)">
<rect y="0.263184" width="41" height="19" rx="2" fill="#636363" fill-opacity="0.5"/>
<path d="M4.69727 5.21631H6.30273C7.07617 5.21631 7.63867 5.41162 7.99023 5.80225C8.3418 6.19678 8.51758 6.82178 8.51758 7.67725C8.51758 8.88037 8.16406 9.65771 7.45703 10.0093C7.10156 10.1694 6.58789 10.2495 5.91602 10.2495V14.2632H4.69727V5.21631ZM5.91602 9.20654C6.41992 9.20654 6.76758 9.10498 6.95898 8.90186C7.1543 8.69482 7.25195 8.32764 7.25195 7.80029C7.25195 7.26123 7.1582 6.8667 6.9707 6.6167C6.7832 6.3667 6.48828 6.2417 6.08594 6.2417H5.91602V9.20654ZM9.45508 5.21631H11.0605C11.7246 5.21631 12.2188 5.37451 12.543 5.69092C12.9531 6.10107 13.1582 6.72803 13.1582 7.57178C13.1582 8.22021 13.0488 8.7417 12.8301 9.13623C12.6152 9.52686 12.3066 9.76904 11.9043 9.86279L13.5684 14.2632H12.332L10.6738 9.8335V14.2632H9.45508V5.21631ZM10.6738 9.22412C11.1465 9.22412 11.4805 9.11475 11.6758 8.896C11.8711 8.67725 11.9688 8.30811 11.9688 7.78857C11.9688 7.50732 11.9473 7.26709 11.9043 7.06787C11.8652 6.86865 11.8008 6.70654 11.7109 6.58154C11.625 6.45654 11.5117 6.36475 11.3711 6.30615C11.2344 6.24756 11.0703 6.21826 10.8789 6.21826H10.6738V9.22412ZM14.5176 5.21631H17.7578V6.24756H15.7363V9.11279H17.5293V10.144H15.7363V13.2319H17.7578V14.2632H14.5176V5.21631ZM18.1562 5.21631H19.3574L19.9023 8.55615L19.9961 9.15967L20.1895 10.4722C20.2207 10.6948 20.248 10.8979 20.2715 11.0815C20.2988 11.2651 20.3223 11.4312 20.3418 11.5796L20.4004 12.0249C20.4121 11.9351 20.4219 11.855 20.4297 11.7847C20.4375 11.7144 20.4453 11.6558 20.4531 11.6089L20.6113 10.5601L20.8164 9.18311C20.8359 9.05811 20.8535 8.94287 20.8691 8.8374C20.8887 8.73193 20.9062 8.63818 20.9219 8.55615L21.5078 5.21631H22.6445L20.8691 14.2632H19.9023L18.1562 5.21631ZM23.3184 5.21631H24.5371V14.2632H23.3184V5.21631ZM25.9316 5.21631H29.1719V6.24756H27.1504V9.11279H28.9434V10.144H27.1504V13.2319H29.1719V14.2632H25.9316V5.21631ZM29.6113 5.21631H30.7891L31.4043 9.41748L31.5039 10.0386C31.5508 10.3745 31.5859 10.6812 31.6094 10.9585L31.6738 11.7261C31.6777 11.7456 31.6816 11.7808 31.6855 11.8315C31.6895 11.8823 31.6953 11.9468 31.7031 12.0249L31.7324 11.7319C31.7793 11.2202 31.8281 10.7495 31.8789 10.3198C31.9336 9.89014 31.9922 9.49365 32.0547 9.13037L32.7051 5.21631H33.6426L34.252 9.01904C34.3418 9.58154 34.416 10.103 34.4746 10.5835C34.5371 11.064 34.5879 11.5229 34.627 11.9604C34.666 11.4995 34.709 11.0542 34.7559 10.6245C34.8066 10.1948 34.8594 9.77295 34.9141 9.35889L35.002 8.75537L35.5234 5.21631H36.6895L35.0898 14.2632H34.1406L33.502 10.355C33.498 10.3394 33.4883 10.2749 33.4727 10.1616C33.457 10.0483 33.4336 9.88623 33.4023 9.67529L33.2793 8.77295C33.2715 8.70264 33.2578 8.59717 33.2383 8.45654C33.2227 8.31592 33.2051 8.13818 33.1855 7.92334L33.1562 7.54834C33.1484 7.63818 33.1406 7.71631 33.1328 7.78271C33.125 7.84912 33.1191 7.90381 33.1152 7.94678C33.0957 8.20459 33.0781 8.40576 33.0625 8.55029C33.0508 8.69092 33.043 8.77686 33.0391 8.80811L32.916 9.67529C32.8887 9.87451 32.8672 10.0308 32.8516 10.144C32.8359 10.2573 32.8242 10.3276 32.8164 10.355L32.1543 14.2632H31.1758L29.6113 5.21631Z" fill="#DFDFDF"/>
</g>
<defs>
<filter id="filter0_b" x="-4" y="-3.73682" width="49" height="27" filterUnits="userSpaceOnUse" color-interpolation-filters="sRGB">
<feFlood flood-opacity="0" result="BackgroundImageFix"/>
<feGaussianBlur in="BackgroundImage" stdDeviation="2"/>
<feComposite in2="SourceAlpha" operator="in" result="effect1_backgroundBlur"/>
<feBlend mode="normal" in="SourceGraphic" in2="effect1_backgroundBlur" result="shape"/>
</filter>
</defs>
</svg>
