<svg width="21" height="21" viewBox="0 0 21 21" fill="none" xmlns="http://www.w3.org/2000/svg">
<path d="M10.9299 0.986938C5.40704 0.986938 0.929688 5.46417 0.929688 10.987C0.929688 16.5101 5.40704 20.9869 10.9299 20.9869C16.4533 20.9869 20.9302 16.5101 20.9302 10.987C20.9302 5.46453 16.4533 0.987416 10.9297 0.987416L10.9299 0.986938ZM15.5159 15.4099C15.3368 15.7037 14.9522 15.7968 14.6585 15.6165C12.3105 14.1823 9.35478 13.8575 5.87383 14.6528C5.53839 14.7292 5.20403 14.5191 5.12761 14.1835C5.05082 13.8479 5.26016 13.5136 5.59643 13.4372C9.40577 12.5669 12.6733 12.9416 15.3093 14.5525C15.6031 14.7328 15.6962 15.1161 15.5159 15.4099ZM16.7399 12.687C16.5142 13.0538 16.0341 13.1697 15.6675 12.944C12.9795 11.2917 8.88202 10.8132 5.70259 11.7784C5.29025 11.9029 4.85474 11.6705 4.7296 11.2589C4.6054 10.8466 4.83791 10.4119 5.24953 10.2865C8.8813 9.18455 13.3963 9.71833 16.4831 11.6152C16.8497 11.8409 16.9656 12.3209 16.7399 12.687ZM16.845 9.8516C13.622 7.93726 8.30441 7.76124 5.2272 8.69518C4.73306 8.84505 4.2105 8.5661 4.06075 8.07196C3.911 7.57758 4.18972 7.05538 4.68422 6.90515C8.21664 5.8328 14.0889 6.03999 17.7996 8.24284C18.245 8.50663 18.3907 9.08066 18.1268 9.52452C17.8641 9.96898 17.2885 10.1155 16.8454 9.8516H16.845Z" fill="white"/>
</svg>
