<svg width="1158" height="171" viewBox="0 0 1158 171" fill="none" xmlns="http://www.w3.org/2000/svg">
<path d="M366.848 10.293L406.105 111.074L447.121 2.96875L486.379 111.074L528.078 10.293H552.785L485.402 170.645L446.633 63.8086L406.203 170.742L342.141 10.293H366.848Z" fill="#ED1B1B"/>
<path d="M644.738 31.6797H584.289V67.9102H642.98V89.2969H584.289V139.688H644.738V161.074H561.535V10.293H644.738V31.6797Z" fill="#ED1B1B"/>
<path d="M747.824 31.6797H687.375V67.9102H746.066V89.2969H687.375V139.688H747.824V161.074H664.621V10.293H747.824V31.6797Z" fill="#ED1B1B"/>
<path d="M790.461 70.4492L849.152 10.293H879.523L811.359 78.5547L879.914 161.074H849.445L795.148 93.9844L790.461 98.6719V161.074H767.707V10.293H790.461V70.4492Z" fill="#ED1B1B"/>
<path d="M890.324 161.074V0.0390625L1000.29 115.078V10.293H1023.04V170.254L913.078 55.5078V161.074H890.324Z" fill="#ED1B1B"/>
<path d="M1041.27 161.074V10.293H1072.91C1088.08 10.293 1100.06 11.7904 1108.85 14.7852C1118.29 17.7148 1126.85 22.6953 1134.53 29.7266C1150.09 43.9193 1157.87 62.5716 1157.87 85.6836C1157.87 108.861 1149.77 127.611 1133.55 141.934C1125.42 149.095 1116.89 154.076 1107.97 156.875C1099.64 159.674 1087.82 161.074 1072.52 161.074H1041.27ZM1064.02 139.688H1074.28C1084.5 139.688 1092.99 138.613 1099.77 136.465C1106.54 134.186 1112.66 130.573 1118.12 125.625C1129.32 115.404 1134.92 102.09 1134.92 85.6836C1134.92 69.1471 1129.39 55.7357 1118.32 45.4492C1108.36 36.2695 1093.68 31.6797 1074.28 31.6797H1064.02V139.688Z" fill="#ED1B1B"/>
<path d="M57.4219 31.3867V160.781H34.668V31.3867H0V10H91.9922V31.3867H57.4219Z" fill="#BA1916"/>
<path d="M131.059 68.9844H196.098V10H218.852V160.781H196.098V90.3711H131.059V160.781H108.305V10H131.059V68.9844Z" fill="#BA1916"/>
<path d="M322.188 31.3867H261.738V67.6172H320.43V89.0039H261.738V139.395H322.188V160.781H238.984V10H322.188V31.3867Z" fill="#BA1916"/>
<path d="M322.188 31.3867H261.738V67.6172H320.43V89.0039H261.738V139.395H322.188V160.781H238.984V10H322.188V31.3867Z" fill="#BA1916"/>
</svg>
