<svg width="23" height="18" viewBox="0 0 23 18" fill="none" xmlns="http://www.w3.org/2000/svg">
<path d="M22.9297 0.0251924C21.9721 0.70067 20.9118 1.2173 19.7897 1.55519C19.1874 0.862703 18.387 0.371884 17.4967 0.149119C16.6064 -0.0736472 15.6692 -0.017612 14.8118 0.309646C13.9544 0.636904 13.2181 1.21959 12.7027 1.97891C12.1872 2.73822 11.9174 3.63753 11.9297 4.55519V5.55519C10.1723 5.60076 8.43096 5.21101 6.8607 4.42064C5.29043 3.63027 3.94 2.46383 2.92969 1.02519C2.92969 1.02519 -1.07031 10.0252 7.92969 14.0252C5.87022 15.4232 3.41684 16.1241 0.929688 16.0252C9.92969 21.0252 20.9297 16.0252 20.9297 4.52519C20.9288 4.24665 20.902 3.96879 20.8497 3.69519C21.8703 2.68869 22.5905 1.41791 22.9297 0.0251924V0.0251924Z" fill="white"/>
</svg>
