<svg width="23" height="16" viewBox="0 0 23 16" fill="none" xmlns="http://www.w3.org/2000/svg">
<path fill-rule="evenodd" clip-rule="evenodd" d="M20.9213 1.68638C21.2619 2.03755 21.5038 2.47239 21.6226 2.94698C21.9398 4.70568 22.0938 6.48993 22.0826 8.27698C22.0889 10.0373 21.935 11.7946 21.6226 13.527C21.5038 14.0016 21.2619 14.4364 20.9213 14.7876C20.5806 15.1387 20.1534 15.3938 19.6826 15.527C17.9626 15.987 11.0826 15.987 11.0826 15.987C11.0826 15.987 4.2026 15.987 2.4826 15.527C2.02142 15.4008 1.60058 15.1578 1.26075 14.8215C0.92091 14.4851 0.673562 14.0668 0.542603 13.607C0.225371 11.8483 0.0713822 10.064 0.0826029 8.27698C0.0738388 6.50329 0.227817 4.73253 0.542603 2.98698C0.661391 2.51239 0.903319 2.07755 1.24395 1.72638C1.58458 1.37522 2.01185 1.12016 2.4826 0.986978C4.2026 0.526978 11.0826 0.526978 11.0826 0.526978C11.0826 0.526978 17.9626 0.526978 19.6826 0.946978C20.1534 1.08016 20.5806 1.33522 20.9213 1.68638ZM14.582 8.27696L8.83203 11.547V5.00696L14.582 8.27696Z" fill="white"/>
</svg>
